inDegrees=yes
name=ik_S46_A06_T01
DataType=double
version=3
OpenSimVersion=4.3-2021-08-27-4bc7ad9
endheader
time	pelvis_tilt	pelvis_list	pelvis_rotation	pelvis_tx	pelvis_ty	pelvis_tz	hip_flexion_r	hip_adduction_r	hip_rotation_r	knee_angle_r	knee_angle_r_beta	ankle_angle_r	subtalar_angle_r	mtp_angle_r	hip_flexion_l	hip_adduction_l	hip_rotation_l	knee_angle_l	knee_angle_l_beta	ankle_angle_l	subtalar_angle_l	mtp_angle_l	lumbar_extension	lumbar_bending	lumbar_rotation	arm_flex_r	arm_add_r	arm_rot_r	elbow_flex_r	pro_sup_r	wrist_flex_r	wrist_dev_r	arm_flex_l	arm_add_l	arm_rot_l	elbow_flex_l	pro_sup_l	wrist_flex_l	wrist_dev_l
6.379999999999952	-10.43619930971001	-2.461627229861897	30.06344843744188	0	0.9399999999999999	0	46.61671928353982	-9.920318623672333	-10.65128149794427	53.22764924187325	0.9289977323673518	0	0	0	46.61671928353982	-9.920318623672333	-10.65128149794427	53.22764924187325	0.9289977323673518	0	0	0	-9.424632408297299	-1.144002186412241	1.550563344908771	13.5360385238707	-6.756612964176425	0.2549652737531859	69.33885751063771	134.6301017639267	0	0	14.80653066983683	-11.74621613553342	-9.389449504528313	84.63521008515274	108.1711698171185	0	0
6.399999999999952	-10.41082690862513	-2.429444927822198	30.21907844299967	0	0.9399999999999999	0	46.61560333495251	-9.920510770969358	-10.65027405926304	53.22846782151949	0.9290120192773685	0	0	0	46.61560333495251	-9.920510770969358	-10.65027405926304	53.22846782151949	0.9290120192773685	0	0	0	-9.391289496933286	-1.11082623827411	1.465220271080432	13.46223163261864	-6.7814262944136	0.5665232917328406	69.34824693759609	134.4766787931483	0	0	16.7936359555944	-12.22196479843414	-9.467599780472497	86.22991096598405	106.9457018502493	0	0
6.419999999999951	-10.38680985102672	-2.366544106529127	30.22147093017399	0	0.9399999999999999	0	46.61443580741907	-9.920711463007589	-10.64922091721401	53.22932435714662	0.9290269686442226	0	0	0	46.61443580741907	-9.920711463007589	-10.64922091721401	53.22932435714662	0.9290269686442226	0	0	0	-9.338006219762152	-1.079189001086959	1.51253796447496	13.34363082128907	-6.847980400963498	0.5366569405713011	69.37354305616694	134.4505420322593	0	0	18.9805720439036	-12.38332714179973	-9.287366227515623	87.52417923698341	105.5499815914986	0	0
6.439999999999951	-10.36535514790289	-2.341911684129706	30.26281751412669	0	0.9399999999999999	0	46.61350295646645	-9.920871326169397	-10.64838093948834	53.23000981335144	0.9290389321118748	0	0	0	46.61350295646645	-9.920871326169397	-10.64838093948834	53.23000981335144	0.9290389321118748	0	0	0	-9.308291608621531	-1.06507316989244	1.489618994277951	13.35973587468653	-6.840196019540491	0.8961667003919833	69.33090929794385	134.2298510438503	0	0	21.40829874499437	-12.57664519170495	-9.038935128713119	88.59572489299472	103.847556228239	0	0
6.45999999999995	-10.32081064201597	-2.300968754313896	30.30946052700044	0	0.9399999999999999	0	46.59572643339642	-9.922914361132978	-10.63589531428352	53.24723349534995	0.9293395420720654	0	0	0	46.59572643339642	-9.922914361132978	-10.63589531428352	53.24723349534995	0.9293395420720654	0	0	0	-9.256110481101846	-1.020761441231019	1.48474299871406	13.32620894656525	-6.871544297264204	1.007496087438599	69.28212697680948	134.1528781575473	0	0	24.00295840269117	-12.84372379022285	-8.930431291359627	89.24525544113439	102.3500994201083	0	0
6.47999999999995	-10.26750648389958	-2.255945307375193	30.392148726344	0	0.9399999999999999	0	46.57717763272972	-9.925039676986191	-10.62288151701347	53.26509994887418	0.9296513705117178	0	0	0	46.57717763272972	-9.925039676986191	-10.62288151701347	53.26509994887418	0.9296513705117178	0	0	0	-9.197158410028587	-0.9616783749564707	1.407191079397222	13.29937374982628	-6.89574964853855	1.094810471557967	69.26422772827129	134.0493614746997	0	0	29.47016964440794	-13.3381425677619	-9.119019220961698	89.67694234841565	101.1786102877644	0	0
6.499999999999949	-10.22473592152749	-2.219665690533915	30.38315472804918	0	0.9399999999999999	0	46.5587769608648	-9.927071524326468	-10.61024316495101	53.28305678392995	0.9299647764066784	0	0	0	46.5587769608648	-9.927071524326468	-10.61024316495101	53.28305678392995	0.9299647764066784	0	0	0	-9.150271335282708	-0.9186212123591747	1.404212244631551	13.3322768062123	-6.86540078589967	1.105831382726213	69.15282123734009	134.0366425101099	0	0	32.19871577992022	-13.42590656257595	-8.931200698012143	86.96139611979414	100.8377439097246	0	0
6.519999999999949	-10.18253380959607	-2.174788217361847	30.37959271342603	0	0.9399999999999999	0	46.54402617097375	-9.928689682764595	-10.60014768897077	53.29741073726522	0.9302153001530566	0	0	0	46.54402617097375	-9.928689682764595	-10.60014768897077	53.29741073726522	0.9302153001530566	0	0	0	-9.09855745405155	-0.8673175180318023	1.355606357688227	13.39026739103863	-6.855948859684356	1.088567364723465	69.00389943789983	134.0728105893162	0	0	34.88073830008545	-13.50212874201493	-9.20185316631038	86.62004970654237	100.6733826616488	0	0
6.539999999999949	-10.15661255220603	-2.120123594734958	30.32494609822886	0	0.9399999999999999	0	46.54310231008049	-9.928837977715565	-10.59934572226142	53.29809575517421	0.9302272559710035	0	0	0	46.54310231008049	-9.928837977715565	-10.59934572226142	53.29809575517421	0.9302272559710035	0	0	0	-9.05021483232616	-0.8275783060475267	1.328627430010995	13.4458114096028	-6.851981418900847	1.024984323274479	68.89009341827222	134.1353505721896	0	0	34.76879233172972	-13.56886098415274	-9.622298067424836	88.52788439837296	100.3801384022057	0	0
6.559999999999948	-10.14866585205818	-2.100675208310121	30.3387614317261	0	0.9399999999999999	0	46.5282156779499	-9.930427681273597	-10.58931020883807	53.31269313142891	0.9304820282488004	0	0	0	46.5282156779499	-9.930427681273597	-10.58931020883807	53.31269313142891	0.9304820282488004	0	0	0	-9.04055116565473	-0.7779928404392596	1.266371508601158	13.59745423089185	-6.876916991977686	0.9350081494332312	68.84763698558575	134.1272774283183	0	0	37.38590478736474	-13.58541819703165	-10.16676728624746	88.42114608136072	99.49380209940811	0	0
6.579999999999948	-10.1146697370067	-2.054332816937904	30.23266685043771	0	0.9399999999999999	0	46.51246377242249	-9.932100394305003	-10.57872451152079	53.32811036957561	0.9307511098160245	0	0	0	46.51246377242249	-9.932100394305003	-10.57872451152079	53.32811036957561	0.9307511098160245	0	0	0	-8.994119609404841	-0.7247479203655857	1.249201783153057	13.67900451920977	-6.874152109403317	0.9398455843664619	68.64858477492275	134.1957724061482	0	0	39.75084776519487	-13.51788259491052	-10.181854513419	85.95719261273268	99.42123239543727	0	0
